<svg version="1.0" xmlns="http://www.w3.org/2000/svg" width="666.667" height="666.667" viewBox="0 0 500 500"><path d="M235.5 93.8c-7.7 7.6-38.9 37.8-69.3 67.2-58.3 56.2-63.8 62.2-72.4 78.8-15.1 28.8-17.9 63.2-7.7 93.6 21.2 63.4 88.8 99.2 155.6 82.4l8.3-2 8.3 2c59.6 15 120.7-11.7 148-64.6 9.9-19.1 14.3-39 13.4-60.1-.8-19.5-4.1-32.1-12.7-49.6-6.8-13.6-15.3-24.7-31.2-40C327.9 155 250.1 80 249.8 80c-.2 0-6.6 6.2-14.3 13.8zm49.6 90.4c18.9 18.3 42.5 41.3 52.5 51.3 16 16 18.5 18.9 22.3 26.2 5.7 11.3 8.1 21.2 8.1 33.8 0 28.3-14.7 52.2-40 65.5-11.1 5.7-11.8 4.6-5.3-7.7 9-17.2 14.3-36.4 14.3-51.9v-7.8l-21.7-22c-12-12.1-22.9-23.1-24.2-24.4-5-5-5.9-.4-1.8 9.3 10.7 25.1 0 65.3-23.8 89.2-8.5 8.5-15.9 10.2-24.6 5.8-3.3-1.8-11.9-11.1-16.8-18.4-16.5-24.2-22.1-56.2-13.5-76.5 2.9-6.6 3.5-10.7 1.8-11.3-.9-.3-46.4 44.6-48.5 47.9-1.4 2.1-1 15 .6 23.7 2.5 12.8 5.2 20.6 11.7 33.9 7.4 15 7 16-4.2 10.2-25.2-13.2-40-37.4-40-65.5 0-12.6 2.4-22.5 8.1-33.8 3.8-7.3 6.2-10.2 22.3-26.2 23.7-23.7 86.8-84.5 87.6-84.5.3 0 16.1 14.9 35.1 33.2z"/></svg>