<?xml version="1.0" standalone="no"?>
<!DOCTYPE svg PUBLIC "-//W3C//DTD SVG 20010904//EN"
 "http://www.w3.org/TR/2001/REC-SVG-20010904/DTD/svg10.dtd">
<svg version="1.0" xmlns="http://www.w3.org/2000/svg"
 width="500.000000pt" height="500.000000pt" viewBox="0 0 500.000000 500.000000"
 preserveAspectRatio="xMidYMid meet">
<metadata>
Created by potrace 1.11, written by Peter Selinger 2001-2013
</metadata>
<g transform="translate(0.000000,500.000000) scale(0.100000,-0.100000)"
fill="#000000" stroke="none">
<path d="M2355 4062 c-77 -76 -389 -378 -693 -672 -583 -562 -638 -622 -724
-788 -151 -288 -179 -632 -77 -936 212 -634 888 -992 1556 -824 l83 20 83 -20
c596 -150 1207 117 1480 646 99 191 143 390 134 601 -8 195 -41 321 -127 496
-68 136 -153 247 -312 400 -479 465 -1257 1215 -1260 1215 -2 0 -66 -62 -143
-138z m496 -904 c189 -183 425 -413 525 -513 160 -160 185 -189 223 -262 57
-113 81 -212 81 -338 0 -283 -147 -522 -400 -655 -111 -57 -118 -46 -53 77 90
172 143 364 143 519 l0 78 -217 220 c-120 121 -229 231 -242 244 -50 50 -59 4
-18 -93 107 -251 0 -653 -238 -892 -85 -85 -159 -102 -246 -58 -33 18 -119
111 -168 184 -165 242 -221 562 -135 765 29 66 35 107 18 113 -9 3 -464 -446
-485 -479 -14 -21 -10 -150 6 -237 25 -128 52 -206 117 -339 74 -150 70 -160
-42 -102 -252 132 -400 374 -400 655 0 126 24 225 81 338 38 73 62 102 223
262 237 237 868 845 876 845 3 0 161 -149 351 -332z"/>
</g>
</svg>
